<?xml version="1.0" standalone="no"?>
<!DOCTYPE svg PUBLIC "-//W3C//DTD SVG 20010904//EN"
 "http://www.w3.org/TR/2001/REC-SVG-20010904/DTD/svg10.dtd">
<svg version="1.0" xmlns="http://www.w3.org/2000/svg"
 width="1024.000000pt" height="1024.000000pt" viewBox="0 0 1024.000000 1024.000000"
 preserveAspectRatio="xMidYMid meet">
<metadata>
Created by potrace 1.14, written by Peter Selinger 2001-2017
</metadata>
<g transform="translate(0.000000,1024.000000) scale(0.100000,-0.100000)"
fill="#000000" stroke="none">
<path d="M0 5120 l0 -5120 5120 0 5120 0 0 5120 0 5120 -5120 0 -5120 0 0
-5120z m2426 3026 c73 -25 428 -168 704 -284 91 -38 206 -81 255 -97 442 -136
1101 -461 1618 -798 63 -41 112 -66 115 -60 6 8 161 104 412 255 420 252 866
461 1240 583 80 25 353 130 607 232 255 102 467 183 472 181 5 -1 -29 -88 -76
-193 -175 -394 -463 -1056 -518 -1190 l-58 -140 -5 -187 c-5 -216 7 -378 48
-641 32 -201 35 -237 21 -237 -5 0 -108 96 -228 214 l-219 213 -129 31 c-423
102 -689 143 -1032 158 l-160 7 1 -2079 1 -2079 -377 -5 c-309 -4 -379 -3
-383 8 -3 8 -5 940 -5 2072 0 1132 -3 2065 -6 2074 -5 13 -18 15 -73 11 -36
-3 -131 -10 -211 -15 -298 -22 -535 -60 -854 -137 l-189 -46 -171 -174 c-166
-169 -273 -269 -281 -262 -2 2 3 45 11 94 7 50 25 167 40 260 22 141 27 216
31 440 l5 270 -85 195 c-47 107 -194 440 -327 740 -277 623 -271 610 -267 610
2 0 35 -11 73 -24z"/>
</g>
</svg>
